<svg id="visual" viewBox="0 0 900 600" width="900" height="600" xmlns="http://www.w3.org/2000/svg" xmlns:xlink="http://www.w3.org/1999/xlink" version="1.1"><rect x="0" y="0" width="900" height="600" fill="#0066FF"></rect><path d="M0 348L21.5 350.3C43 352.7 86 357.3 128.8 352.2C171.7 347 214.3 332 257.2 338.5C300 345 343 373 385.8 369.8C428.7 366.7 471.3 332.3 514.2 327.8C557 323.3 600 348.7 642.8 355C685.7 361.3 728.3 348.7 771.2 356.8C814 365 857 394 878.5 408.5L900 423L900 601L878.5 601C857 601 814 601 771.2 601C728.3 601 685.7 601 642.8 601C600 601 557 601 514.2 601C471.3 601 428.7 601 385.8 601C343 601 300 601 257.2 601C214.3 601 171.7 601 128.8 601C86 601 43 601 21.5 601L0 601Z" fill="#0066ff"></path><path d="M0 344L21.5 358.5C43 373 86 402 128.8 412.7C171.7 423.3 214.3 415.7 257.2 417C300 418.3 343 428.7 385.8 423C428.7 417.3 471.3 395.7 514.2 386C557 376.3 600 378.7 642.8 378.3C685.7 378 728.3 375 771.2 378.8C814 382.7 857 393.3 878.5 398.7L900 404L900 601L878.5 601C857 601 814 601 771.2 601C728.3 601 685.7 601 642.8 601C600 601 557 601 514.2 601C471.3 601 428.7 601 385.8 601C343 601 300 601 257.2 601C214.3 601 171.7 601 128.8 601C86 601 43 601 21.5 601L0 601Z" fill="#0076ff"></path><path d="M0 401L21.5 411.7C43 422.3 86 443.7 128.8 457.7C171.7 471.7 214.3 478.3 257.2 468.7C300 459 343 433 385.8 418.8C428.7 404.7 471.3 402.3 514.2 401.2C557 400 600 400 642.8 407.5C685.7 415 728.3 430 771.2 427.7C814 425.3 857 405.7 878.5 395.8L900 386L900 601L878.5 601C857 601 814 601 771.2 601C728.3 601 685.7 601 642.8 601C600 601 557 601 514.2 601C471.3 601 428.7 601 385.8 601C343 601 300 601 257.2 601C214.3 601 171.7 601 128.8 601C86 601 43 601 21.5 601L0 601Z" fill="#0085ff"></path><path d="M0 446L21.5 445C43 444 86 442 128.8 440.7C171.7 439.3 214.3 438.7 257.2 443.8C300 449 343 460 385.8 458.3C428.7 456.7 471.3 442.3 514.2 438C557 433.7 600 439.3 642.8 441.5C685.7 443.7 728.3 442.3 771.2 452C814 461.7 857 482.3 878.5 492.7L900 503L900 601L878.5 601C857 601 814 601 771.2 601C728.3 601 685.7 601 642.8 601C600 601 557 601 514.2 601C471.3 601 428.7 601 385.8 601C343 601 300 601 257.2 601C214.3 601 171.7 601 128.8 601C86 601 43 601 21.5 601L0 601Z" fill="#1393fe"></path><path d="M0 505L21.5 511.2C43 517.3 86 529.7 128.8 526.5C171.7 523.3 214.3 504.7 257.2 494.7C300 484.7 343 483.3 385.8 483.7C428.7 484 471.3 486 514.2 493C557 500 600 512 642.8 515.7C685.7 519.3 728.3 514.7 771.2 506.5C814 498.3 857 486.7 878.5 480.8L900 475L900 601L878.5 601C857 601 814 601 771.2 601C728.3 601 685.7 601 642.8 601C600 601 557 601 514.2 601C471.3 601 428.7 601 385.8 601C343 601 300 601 257.2 601C214.3 601 171.7 601 128.8 601C86 601 43 601 21.5 601L0 601Z" fill="#33a0fb"></path><path d="M0 548L21.5 545.2C43 542.3 86 536.7 128.8 532.5C171.7 528.3 214.3 525.7 257.2 528.7C300 531.7 343 540.3 385.8 541.5C428.7 542.7 471.3 536.3 514.2 535.5C557 534.7 600 539.3 642.8 540.2C685.7 541 728.3 538 771.2 543.7C814 549.3 857 563.7 878.5 570.8L900 578L900 601L878.5 601C857 601 814 601 771.2 601C728.3 601 685.7 601 642.8 601C600 601 557 601 514.2 601C471.3 601 428.7 601 385.8 601C343 601 300 601 257.2 601C214.3 601 171.7 601 128.8 601C86 601 43 601 21.5 601L0 601Z" fill="#4facf7"></path></svg>